<svg width="86" height="35" viewBox="0 0 86 35" fill="none" xmlns="http://www.w3.org/2000/svg">
<g clip-path="url(#clip0_1_16)">
<path fill-rule="evenodd" clip-rule="evenodd" d="M25.9559 0.156494C25.3846 0.225739 24.9031 0.296611 24.8857 0.313946C24.8547 0.345168 24.6243 10.2372 24.2719 26.6772C24.221 29.0476 24.1539 31.7735 24.1225 32.7349L24.0656 34.4828H26.1408H28.216L28.1528 32.0166C28.0887 29.5189 28.0156 26.3162 27.7619 14.897C27.6847 11.4204 27.5933 7.48184 27.5587 6.14455C27.5057 4.09366 27.5164 3.7255 27.6273 3.79226C27.7579 3.87079 31.1345 6.7215 31.8692 7.37352C32.0803 7.56076 32.4888 7.91417 32.777 8.15877C33.0653 8.40347 34.9569 10.0197 36.9807 11.7503C39.0043 13.481 40.8809 15.0801 41.1505 15.3041L41.641 15.7111L42.9655 15.7083L44.29 15.7056L45.8749 14.3436C46.7465 13.5944 48.2686 12.292 49.2572 11.4492C50.2457 10.6064 51.102 9.87283 51.1601 9.8192C51.263 9.724 54.6734 6.80214 57.0285 4.79146C57.6755 4.23914 58.2491 3.77157 58.3034 3.75241C58.37 3.72885 58.3832 4.19508 58.3439 5.18902C58.312 5.99831 58.2197 9.61271 58.1389 13.221C58.0579 16.8293 57.9128 23.057 57.8163 27.0603C57.7197 31.0636 57.6713 34.3723 57.7088 34.4129C57.7462 34.4535 58.6724 34.4751 59.7669 34.4608L61.757 34.4349L61.7426 32.7109C61.7347 31.7628 61.7059 30.4052 61.6784 29.6941C61.6511 28.9829 61.5861 26.3324 61.534 23.804C61.4378 19.1401 61.0854 3.29682 61.0361 1.42329C61.0213 0.860623 60.9834 0.374379 60.9519 0.342774C60.9204 0.311265 60.3472 0.221237 59.6779 0.142703L58.4612 0L56.7745 1.46189C55.8468 2.26581 54.9803 3.01553 54.8489 3.12778C54.7175 3.24002 53.7715 4.05812 52.7467 4.94566C51.7218 5.83329 49.1633 8.0426 47.0611 9.85521C44.9589 11.6679 43.1677 13.2128 43.0807 13.2884C42.9386 13.4119 42.4203 12.9921 37.9685 9.14697C35.2438 6.79352 32.158 4.12928 31.1112 3.22623C30.0644 2.32328 28.8004 1.22887 28.3023 0.794347C27.7317 0.29642 27.3223 0.0090985 27.1956 0.0174308C27.0849 0.0247096 26.5271 0.0872499 25.9559 0.156494ZM62.4202 1.84661L62.4724 2.87139L63.0257 3.76027C63.33 4.24919 63.7151 4.86473 63.8816 5.12811C64.0479 5.39149 64.65 6.3612 65.2194 7.28302C65.789 8.20484 66.4326 9.2392 66.6498 9.58159C66.867 9.92398 68.0646 11.8473 69.311 13.8557L71.5773 17.5073L71.9692 17.5702C72.1848 17.6046 72.3746 17.6193 72.3913 17.6026C72.4079 17.586 72.2994 17.3799 72.1503 17.1446C71.8943 16.7408 68.1518 10.7209 64.7391 5.22388C63.8888 3.85432 63.1362 2.62602 63.0667 2.49433C62.9547 2.28238 64.6506 3.84924 67.3667 6.46703C67.8659 6.94829 70.7899 9.72755 73.8644 12.6433C76.9389 15.559 79.7181 18.2007 80.0404 18.5138C80.5359 18.9952 80.7122 19.1031 81.183 19.2128C81.4893 19.2841 81.7555 19.3268 81.7747 19.3075C81.7939 19.2883 81.4517 18.9315 81.0143 18.5147C80.2185 17.7564 76.3127 14.0468 72.624 10.5461C71.5456 9.52269 69.8893 7.94817 68.9433 7.04732C66.1719 4.40818 63.9568 2.30738 63.1343 1.53841L62.3681 0.82193L62.4202 1.84661ZM21.4796 3.17902C20.3609 4.24048 19.0801 5.4591 18.6333 5.88721C17.2845 7.17987 15.9005 8.49522 14.192 10.1086C13.2997 10.9512 12.1387 12.0535 11.612 12.5579C11.0854 13.0624 9.36444 14.6955 7.78778 16.187C4.16068 19.6183 4.25375 19.5278 4.30478 19.5781C4.32848 19.6013 4.5796 19.5743 4.86292 19.518C5.40682 19.4098 5.67199 19.171 12.3767 12.7496C13.7424 11.4417 16.8073 8.5275 17.8202 7.57379C18.2937 7.12806 19.0681 6.39184 19.5411 5.93797C20.7032 4.82288 22.0109 3.58807 22.6372 3.01467L23.1533 2.54222L22.9143 2.92531C22.3403 3.84541 18.8609 9.44789 17.1892 12.1435C16.1848 13.7633 15.2251 15.3041 15.0565 15.5674C14.1502 16.9837 13.6468 17.8323 13.688 17.8738C13.7136 17.8993 13.9015 17.8924 14.1055 17.8583C14.455 17.7998 14.5136 17.7365 15.1074 16.7776C15.7476 15.7438 20.8193 7.58633 22.6182 4.69713L23.602 3.11686L23.6021 2.18307C23.6022 1.66943 23.5823 1.24927 23.558 1.24927C23.5337 1.24927 22.5984 2.11765 21.4796 3.17902ZM39.3689 1.47798C38.4476 1.56877 38.1967 1.63007 37.8164 1.85763L37.3629 2.12905L36.8131 1.94689C36.3073 1.77928 36.1641 1.77373 35.0211 1.87659L33.7789 1.98836L35.0004 2.00186C36.0987 2.01412 36.2695 2.0396 36.6933 2.2549C36.9526 2.38659 37.2313 2.49433 37.3127 2.49433C37.3941 2.49433 37.6858 2.34617 37.9609 2.16516C38.3741 1.89326 38.6607 1.80007 39.6078 1.62997C40.2384 1.51667 40.7724 1.40625 40.7943 1.3845C40.8432 1.33595 40.7436 1.34246 39.3689 1.47798ZM42.3789 4.74377C42.4314 4.76522 42.9453 4.85075 43.5209 4.93388C44.1695 5.02764 44.6781 5.1555 44.8587 5.27024C45.6682 5.78483 45.6046 5.77621 46.2662 5.46245C46.8294 5.19544 46.9504 5.17532 48.0644 5.16326C49.0133 5.15301 49.1607 5.1351 48.7811 5.07582C47.8154 4.92507 46.5839 4.97046 46.1093 5.17437L45.6671 5.36438L45.1697 5.08903C44.719 4.83964 44.5597 4.80851 43.4778 4.75919C42.8208 4.72921 42.3263 4.72231 42.3789 4.74377ZM38.3178 16.9528C36.8725 16.9938 35.131 17.056 34.4478 17.0909C31.7839 17.2272 29.8434 17.3454 29.455 17.3949L29.0489 17.4468V18.0764V18.7061L30.1717 18.6373C30.7891 18.5994 31.8749 18.531 32.5844 18.4852C33.2939 18.4393 35.8819 18.3491 38.3354 18.2846C43.2026 18.1568 50.1015 18.2678 54.0367 18.5372C55.1403 18.6128 56.2261 18.6759 56.4494 18.6773L56.8556 18.6801V18.0634V17.4468L56.4494 17.3942C55.945 17.3289 53.2106 17.178 50.31 17.0553C47.0468 16.9173 41.3006 16.8681 38.3178 16.9528ZM21.7867 18.0699C15.3228 18.794 8.59732 19.898 2.2746 21.2732C1.08188 21.5326 0.0820822 21.7449 0.0529378 21.7449C0.0238889 21.7449 0 22.042 0 22.4053V23.0658L1.075 22.8298C8.11056 21.2852 14.593 20.2078 21.7628 19.3914L23.22 19.2255V18.5698C23.22 18.103 23.1856 17.9172 23.1006 17.925C23.0349 17.9311 22.4436 17.9964 21.7867 18.0699ZM62.78 18.6592V19.3087L65.4687 19.6258C71.7709 20.369 78.2053 21.438 83.7534 22.6637C84.8039 22.8958 85.7391 23.0857 85.8317 23.0857C85.9752 23.0857 86 22.9936 86 22.4632C86 22.1208 85.9858 21.8406 85.9684 21.8406C85.951 21.8406 85.1663 21.6714 84.2245 21.4646C77.6928 20.0301 71.6538 19.0303 64.5156 18.2019C63.6045 18.0962 62.8413 18.0097 62.8195 18.0097C62.7978 18.0097 62.78 18.302 62.78 18.6592ZM21.4522 21.8963C21.3471 21.9125 21.0138 21.9529 20.7117 21.9859L20.1622 22.046V23.8271V25.6083L19.1828 27.2742L18.2033 28.94L18.1782 25.6297C18.1549 22.5563 18.1412 22.3201 17.9871 22.3278C17.8958 22.3325 17.4556 22.3871 17.0089 22.4493L16.1967 22.5622L16.1718 28.4985L16.1471 34.4349L17.1513 34.4048L18.1556 34.3746V33.2372V32.0997L19.135 30.4269L20.1144 28.7541L20.1395 31.5945L20.1645 34.4349L21.1667 34.4048L22.1689 34.3746V28.1077V21.8406L21.9061 21.8536C21.7616 21.8608 21.5573 21.88 21.4522 21.8963ZM63.71 28.0812C63.7223 31.5231 63.733 34.3606 63.7338 34.387C63.7348 34.4133 64.1763 34.4274 64.715 34.4184L65.6944 34.4018L65.7422 33.1255L65.79 31.849L66.2727 31.0349C66.5381 30.5872 66.9681 29.8545 67.2282 29.4067L67.7011 28.5927L67.7262 31.5138L67.7512 34.4349L68.7534 34.4048L69.7556 34.3746V28.4908C69.7556 25.2546 69.7449 22.6047 69.7317 22.6021C69.5053 22.5577 67.9551 22.3253 67.8683 22.3228C67.7776 22.3204 67.7489 22.6916 67.7489 23.8696V25.4198L67.2 26.3837C66.8981 26.9139 66.4467 27.6924 66.1967 28.1138L65.7423 28.88V25.467L65.7422 22.0539L65.3361 21.9991C65.1128 21.9691 64.6505 21.9171 64.3089 21.8839L63.6878 21.8235L63.71 28.0812ZM13.1867 22.9969C12.9502 23.0418 12.6169 23.1037 12.4461 23.1343L12.1356 23.1902L12.1334 24.5027C12.1309 25.993 12.2504 25.6598 10.8381 28.1138L10.1767 29.2631L10.1513 26.4138C10.1289 23.8826 10.1091 23.5646 9.9739 23.5646C9.89029 23.5646 9.43946 23.6347 8.972 23.7204L8.12222 23.8762L8.12203 29.1555L8.12184 34.4349L9.12536 34.4048L10.1289 34.3746L10.1306 33.3992C10.1322 32.5071 10.1555 32.3826 10.4024 31.9448C11.3334 30.2937 11.8941 29.3409 12.0066 29.2187C12.1151 29.1006 12.1356 29.5024 12.1354 31.7567L12.1352 34.4349L13.1387 34.4048L14.1422 34.3746V28.6344V22.8941L13.8794 22.9047C13.735 22.9104 13.4232 22.9519 13.1867 22.9969ZM71.7622 28.6645V34.4349H72.7656H73.7689V29.5744C73.7689 26.6655 73.8043 24.7138 73.8572 24.7138C73.9057 24.7138 74.1529 24.7579 74.4066 24.8116C75.1155 24.962 77.5107 25.3843 77.6545 25.3843C77.7505 25.3843 77.7822 25.1939 77.7822 24.6181C77.7822 24.1967 77.7581 23.8519 77.7287 23.8519C77.6993 23.8519 76.3904 23.6364 74.82 23.373C73.2496 23.1096 71.9192 22.8941 71.8635 22.8941C71.7933 22.8941 71.7622 24.6643 71.7622 28.6645ZM5.01667 24.4644L4.06111 24.6659L4.0356 27.0802L4.01008 29.4945L3.70115 29.5449C3.53126 29.5725 3.13709 29.639 2.8252 29.6925C2.5134 29.7461 2.2231 29.7898 2.1802 29.7898C2.13729 29.7898 2.10222 28.7581 2.10222 27.4969C2.10222 26.2358 2.06792 25.1827 2.02597 25.1568C1.98402 25.1308 1.52182 25.2047 0.998747 25.321L0.0477778 25.5324V29.9674V34.4023L1.05111 34.4024L2.05444 34.4025L2.08063 32.8717L2.1069 31.3411L2.74952 31.2323C3.10298 31.1725 3.53097 31.099 3.70048 31.069L4.00884 31.0144L4.03493 32.7085L4.06111 34.4025L5.06444 34.4024L6.06778 34.4023L6.09253 29.3961C6.1061 26.6427 6.0846 24.3614 6.04475 24.3264C6.0049 24.2915 5.54222 24.3536 5.01667 24.4644ZM39.6078 24.465C39.1148 24.6217 38.6229 24.8773 37.5304 25.5444C35.1585 26.9927 33.3762 27.4913 30.5709 27.4913H29.24L29.2407 28.0899C29.2411 28.4191 29.2679 28.9697 29.3003 29.3136L29.3593 29.9388L30.2791 29.8654C34.6593 29.5163 36.2827 29.1072 38.3123 27.8407C39.1158 27.3393 38.9309 27.305 39.8294 28.1218C40.0563 28.3281 40.477 28.653 40.7644 28.8439C41.2198 29.1464 41.3446 29.1858 41.7373 29.1513C43.453 29.0005 44.4028 28.7528 45.6278 28.1368C46.3711 27.763 47.2389 27.2065 47.1764 27.1439C47.1495 27.1169 46.2837 27.2142 45.2523 27.36C43.0992 27.6645 42.4851 27.6244 41.4918 27.1147C40.5873 26.6505 40.2289 26.2107 40.2289 25.5649C40.2289 25.3215 40.2892 25.2517 40.635 25.0943C40.8583 24.9927 41.1164 24.9086 41.2083 24.9075C41.4702 24.9042 41.4052 24.7292 41.065 24.5212C40.711 24.3049 40.1764 24.2843 39.6078 24.465ZM79.7889 29.3562V34.3817L82.799 34.4082L85.809 34.4349V32.835L85.8089 31.2352L85.4983 31.1845C85.3275 31.1566 84.9326 31.09 84.6208 31.0364C83.7429 30.8858 83.8022 30.8234 83.8022 31.8969V32.8546H82.7989H81.7956V29.5504C81.7956 26.7406 81.8161 26.2462 81.933 26.2462C82.0086 26.2462 82.3633 26.3116 82.7213 26.3915C83.0793 26.4715 83.4674 26.5581 83.5837 26.584C83.7806 26.628 83.797 26.6917 83.8226 27.5156L83.85 28.4001L84.4711 28.5116C84.8127 28.5728 85.2535 28.6491 85.4506 28.6808L85.8089 28.7386V27.1298V25.5211L84.925 25.3443C84.4389 25.2472 83.1672 24.9793 82.0989 24.7492C81.0307 24.519 80.0739 24.3307 79.9728 24.3307C79.7937 24.3307 79.7889 24.4601 79.7889 29.3562ZM48.0837 26.9558C47.548 27.4532 46.8537 28.0159 46.541 28.2063C45.2876 28.9694 43.6518 29.5983 42.9202 29.5983C42.3867 29.5983 42.5194 29.7611 43.2236 29.9707C44.0594 30.2193 44.7434 30.33 45.9838 30.4173C47.4491 30.5204 47.7172 30.4493 48.3509 29.79L48.8863 29.233L49.3911 29.552L49.8959 29.8711L50.5329 29.6325C50.8833 29.5013 51.4065 29.2645 51.6956 29.1063C52.3365 28.7555 54.2695 27.4655 54.273 27.3862C54.2744 27.3548 53.7919 27.3014 53.2006 27.2675C51.6653 27.1796 50.4231 26.8192 49.1107 26.081C49.0817 26.0647 48.6196 26.4584 48.0837 26.9558ZM55.9478 26.94C55.4522 27.1468 55.1974 27.3113 53.3934 28.589C52.8012 29.0085 51.9171 29.5541 51.4287 29.8016L50.5408 30.2517L51.2853 30.5368C51.6949 30.6936 52.4385 30.894 52.9378 30.9821C54.032 31.1753 56.4013 31.4075 56.4867 31.3299C56.6003 31.2268 56.6417 26.7244 56.529 26.7328C56.4721 26.7371 56.2106 26.8303 55.9478 26.94ZM38.3656 28.3689C37.1146 29.2062 35.5864 29.7786 33.7789 30.0871C33.411 30.1499 32.2715 30.2702 31.2467 30.3547L29.3833 30.5081V31.2264V31.9448L30.2433 32.0562C31.5712 32.2283 32.0027 32.2068 33.5984 31.8887C35.3587 31.5378 35.6463 31.5709 36.6394 32.2384C37.834 33.0414 39.2022 33.5855 40.2801 33.6865C40.9366 33.7479 41.4648 33.6065 43.0956 32.9327C43.9843 32.5655 46.4947 31.2957 46.6741 31.1224C46.7295 31.0691 46.5981 31.0349 46.3372 31.0349C45.118 31.0349 43.2118 30.6482 42.1878 30.1931C41.1693 29.7406 39.885 28.8684 39.2806 28.2191C39.1531 28.0821 39.0241 27.9735 38.9939 27.9777C38.9636 27.9818 38.6809 28.1579 38.3656 28.3689ZM48.3867 30.326C48.118 30.6413 47.5461 31.1138 46.9826 31.4863C45.861 32.2275 43.3647 33.4511 41.9489 33.9538C41.0672 34.2668 40.8703 34.3039 40.3244 34.2602C39.6681 34.2077 38.1159 33.7197 37.5533 33.389C37.3694 33.2809 36.943 33.0113 36.6058 32.7899C36.2686 32.5683 35.7898 32.3384 35.5418 32.2788C35.0681 32.1648 34.9898 32.1742 33.1578 32.5634C32.1092 32.7862 31.5846 32.8018 30.3328 32.6476C29.8363 32.5864 29.4075 32.559 29.38 32.5866C29.3524 32.6142 29.359 33.0522 29.3946 33.5598L29.4593 34.4828H42.9664H56.4733V33.2042V31.9257L55.511 31.8625C52.7329 31.6799 51.1041 31.227 49.4418 30.1749L48.8402 29.794L48.3867 30.326Z" fill="#f7f7f7"/>
</g>
<defs>
<clipPath id="clip0_1_16">
<rect width="86" height="35" fill="white"/>
</clipPath>
</defs>
</svg>
